<svg width="100" height="32" viewBox="0 0 100 32" fill="none" xmlns="http://www.w3.org/2000/svg">
<g clip-path="url(#clip0_7602_1933)">
<path d="M26.8708 28.8638C26.8683 28.8824 26.8643 28.899 26.8643 28.9155C26.864 29.6241 26.8641 30.3326 26.8641 31.0486C26.9317 31.0725 26.992 31.0991 27.0553 31.1146C27.2578 31.1644 27.4612 31.2107 27.6647 31.2568C27.8314 31.2945 27.997 31.3356 28.156 31.3993C28.2443 31.4346 28.3301 31.4757 28.4019 31.5395C28.5094 31.6348 28.5213 31.7369 28.442 31.8534C28.4196 31.8865 28.3919 31.9108 28.3522 31.9172C28.2866 31.9275 28.2211 31.9372 28.1552 31.9447C28.127 31.948 28.0983 31.9455 28.0697 31.9455C26.7213 31.9455 25.3728 31.9458 24.0244 31.9448C23.9391 31.9447 23.854 31.9352 23.7688 31.9289C23.6756 31.9217 23.6272 31.8606 23.5963 31.7813C23.5655 31.702 23.5826 31.6287 23.6425 31.573C23.6936 31.5253 23.753 31.4834 23.8144 31.4494C23.9308 31.3847 24.0579 31.3437 24.1874 31.3129C24.3902 31.2643 24.5947 31.222 24.7976 31.1737C24.9035 31.1485 25.0082 31.1171 25.1127 31.0864C25.1486 31.0757 25.1824 31.0584 25.2189 31.0437C25.2227 31.0175 25.229 30.9943 25.229 30.9714C25.2294 20.9519 25.2294 10.9325 25.2294 0.906087C25.1853 0.887962 25.1484 0.867285 25.1085 0.857414C24.9107 0.807973 24.7128 0.75938 24.5139 0.71479C24.3425 0.676156 24.1706 0.639988 24.0069 0.575144C23.9322 0.545616 23.8592 0.510812 23.7891 0.471753C23.7485 0.449032 23.7106 0.417205 23.6799 0.382231C23.5956 0.286411 23.6098 0.146172 23.7103 0.067713C23.7316 0.051034 23.7609 0.0395483 23.7879 0.0360593C23.8536 0.0275496 23.9202 0.0208245 23.9863 0.0207394C25.3823 0.0199735 26.7782 0.0199733 28.1742 0.020569C28.2357 0.0207392 28.298 0.0241434 28.3586 0.0336743C28.51 0.0575014 28.5865 0.236377 28.4965 0.359598C28.4666 0.400529 28.4256 0.437716 28.382 0.4635C28.3088 0.50656 28.2315 0.543833 28.1524 0.574978C27.9487 0.65548 27.7332 0.693601 27.5203 0.741C27.3631 0.775975 27.2069 0.816055 27.0511 0.857327C26.9918 0.8729 26.9352 0.898344 26.8721 0.921149C26.8693 0.960124 26.8654 0.997143 26.8639 1.03416C26.8626 1.07194 26.8637 1.10981 26.8637 1.14759C26.8637 4.81526 26.8637 8.48294 26.8635 12.1506V12.337C26.9068 12.3029 26.9114 12.2668 26.9211 12.2346C27.0102 11.9398 27.1249 11.6551 27.2672 11.3818C27.5667 10.8074 27.9602 10.3103 28.4857 9.92329C28.8728 9.63804 29.2991 9.43526 29.7746 9.35093C30.2948 9.2586 30.8189 9.21324 31.3477 9.27008C31.5315 9.28991 31.7162 9.30361 31.8995 9.32803C32.3591 9.38922 32.7781 9.55925 33.1646 9.81105C33.5915 10.0892 33.9416 10.4454 34.2311 10.8617C34.6229 11.4252 34.8759 12.0476 35.013 12.7174C35.0946 13.1167 35.1325 13.5202 35.1324 13.9282C35.1312 18.4324 35.1317 22.9367 35.1317 27.441C35.0983 28.4531 34.8486 29.4012 34.2833 30.254C33.9681 30.7296 33.5761 31.1291 33.0874 31.4309C32.7112 31.6633 32.305 31.8181 31.8655 31.8714C31.4274 31.9247 30.9872 31.9705 30.5447 31.9355C30.1712 31.9058 29.797 31.874 29.437 31.7586C28.9017 31.5873 28.4444 31.2907 28.0507 30.8946C27.5508 30.3912 27.2051 29.7942 26.9763 29.1273C26.9471 29.0425 26.919 28.9573 26.8899 28.8725C26.8888 28.8697 26.8822 28.8688 26.8706 28.8639L26.8708 28.8638Z" fill="black"/>
<path d="M66.5851 20.9995C66.5851 18.8353 66.5831 16.6708 66.5863 14.5064C66.5874 13.7654 66.7289 13.051 67.039 12.3738C67.2922 11.8207 67.6363 11.3329 68.0963 10.93C68.5169 10.5615 68.9951 10.3003 69.5427 10.1727C69.6533 10.1468 69.766 10.1277 69.8787 10.1128C70.2412 10.0647 70.6049 10.0289 70.9714 10.0464C71.0899 10.0521 71.2085 10.0595 71.3261 10.0729C71.5757 10.1012 71.8276 10.11 72.0734 10.1687C72.6301 10.3018 73.1169 10.5657 73.5426 10.9432C74.0152 11.3618 74.3641 11.869 74.6156 12.4441C74.808 12.8842 74.933 13.3431 74.9907 13.82C75.0225 14.0829 75.0409 14.3458 75.0408 14.6109C75.0395 18.9396 75.0399 23.2683 75.0399 27.597C74.9971 28.6772 74.702 29.6716 74.0256 30.5347C73.6759 30.9807 73.251 31.3382 72.7375 31.5859C72.3882 31.7545 72.0208 31.8582 71.6325 31.8875C71.3864 31.906 71.142 31.9425 70.8945 31.9443C70.5998 31.9464 70.3068 31.933 70.0143 31.8927C69.8451 31.8694 69.6753 31.8517 69.5092 31.8104C68.9143 31.6624 68.4045 31.3632 67.9663 30.941C67.4296 30.4239 67.0669 29.8 66.837 29.0962C66.6654 28.5704 66.5864 28.0295 66.5858 27.4782C66.5836 25.3186 66.5849 23.159 66.5849 20.9993L66.5851 20.9995Z" fill="black"/>
<path d="M58.4178 19.7305C58.4132 19.7528 58.4069 19.7704 58.4063 19.7881C58.4047 19.8354 58.4051 19.8825 58.4051 19.9299C58.4056 21.7541 58.4063 23.5785 58.4069 25.4027C58.4072 26.3055 58.4076 27.2082 58.4083 28.1108C58.4089 28.7157 58.4115 29.3207 58.4089 29.9256C58.4084 30.0213 58.4359 30.096 58.4951 30.1702C58.8949 30.6708 59.4079 31.004 60.0156 31.1974C60.4397 31.3324 60.875 31.3892 61.3207 31.3761C61.7651 31.3631 62.1999 31.2995 62.6184 31.1467C63.1427 30.9552 63.6079 30.6687 64.0001 30.271C64.4948 29.769 64.7814 29.1625 64.9007 28.4736C64.9931 27.9399 64.9572 27.4096 64.8601 26.8808C64.8518 26.8354 64.8425 26.7903 64.8338 26.7456C64.777 26.7395 64.7562 26.7833 64.7254 26.8098C64.5464 26.9647 64.3683 27.1207 64.1886 27.275C64.1528 27.3057 64.1125 27.3317 64.0724 27.3567C64.0382 27.378 64.0018 27.3822 63.9682 27.3563C63.9526 27.3056 63.9856 27.2734 64.0073 27.2381C64.0912 27.1008 64.173 26.9624 64.2603 26.8273C64.4347 26.5574 64.5433 26.263 64.6107 25.9505C64.7063 25.5068 64.7845 25.0603 64.8438 24.6106C64.8934 24.2359 64.9383 23.8607 64.9843 23.4855C64.9914 23.4282 65.0036 23.374 65.0421 23.3287C65.0613 23.3062 65.095 23.3015 65.1193 23.3181C65.1647 23.3489 65.1932 23.3909 65.1981 23.4462C65.2018 23.4886 65.2043 23.5311 65.2061 23.5736C65.2363 24.2677 65.2651 24.9614 65.2971 25.6554C65.3132 26.0047 65.339 26.3535 65.3526 26.7028C65.3673 27.0758 65.3704 27.4488 65.3648 27.8224C65.3548 28.4657 65.21 29.0759 64.9547 29.6636C64.8604 29.8807 64.7558 30.0936 64.6236 30.2896C64.4885 30.4896 64.3295 30.6722 64.1646 30.8492C63.6512 31.3997 63.0136 31.7175 62.2774 31.8527C61.8458 31.9318 61.4107 31.962 60.9733 31.9383C60.1818 31.8952 59.4587 31.646 58.8063 31.199C58.6429 31.087 58.486 30.9622 58.3395 30.8286C58.1565 30.662 58.0176 30.4572 57.8874 30.2475C57.6491 29.8638 57.4711 29.4521 57.3233 29.027C57.1162 28.4321 56.9717 27.8215 56.8622 27.2018C56.8202 26.9632 56.8046 26.7247 56.8048 26.483C56.8074 23.7749 56.8076 21.0668 56.8076 18.3589C56.8076 17.1725 56.8048 15.9863 56.8061 14.8C56.8063 14.7018 56.8222 14.6024 56.8408 14.5056C56.9722 13.8201 57.1776 13.1579 57.4928 12.5334C57.7868 11.9516 58.1822 11.4488 58.7086 11.0551C59.1093 10.7554 59.5531 10.5483 60.0466 10.4548C60.2094 10.424 60.375 10.408 60.5396 10.3862C60.8419 10.3465 61.1458 10.3471 61.4496 10.3582C61.5537 10.362 61.6579 10.3731 61.7615 10.3844C61.9595 10.4062 62.1595 10.4187 62.3546 10.456C63.0125 10.582 63.5709 10.8995 64.0489 11.3606C64.5675 11.8608 64.9228 12.4628 65.1531 13.1404C65.2721 13.4906 65.3513 13.8498 65.3886 14.2181C65.3915 14.2462 65.3887 14.2783 65.4016 14.3014C65.4459 14.3807 65.437 14.4657 65.437 14.5499C65.4382 16.2087 65.4394 17.8677 65.4404 19.5265V19.7024C65.4079 19.7093 65.3818 19.7182 65.3554 19.7197C65.3081 19.7224 65.2605 19.7208 65.213 19.7208C63.01 19.7208 60.807 19.7206 58.604 19.721C58.5435 19.721 58.4818 19.7145 58.4179 19.7307L58.4178 19.7305Z" fill="black"/>
<path d="M36.1242 10.8321C35.9524 10.7634 35.7891 10.7337 35.6278 10.6962C35.4755 10.6607 35.3226 10.627 35.1721 10.585C35.0904 10.5623 35.0112 10.5279 34.9343 10.4917C34.8879 10.4698 34.8439 10.4386 34.8061 10.4037C34.7224 10.3265 34.7164 10.2461 34.7773 10.1502C34.8047 10.1068 34.8425 10.0815 34.8925 10.0771C34.9445 10.0723 34.9968 10.0698 35.0489 10.0698C36.1598 10.0704 37.2708 10.0714 38.3819 10.0722C38.4815 10.0722 38.5811 10.0699 38.6809 10.0699C38.7378 10.0699 38.7946 10.0723 38.8517 10.0732C38.9393 10.0748 38.9916 10.1228 39.0209 10.2005C39.0513 10.2816 39.0302 10.3538 38.9645 10.4039C38.9015 10.4523 38.8314 10.4947 38.7588 10.5276C38.6071 10.5967 38.4448 10.6335 38.2822 10.6681C38.1108 10.7046 37.9376 10.7338 37.7648 10.7937C37.7609 10.8249 37.755 10.8565 37.7533 10.8883C37.7512 10.926 37.7527 10.9639 37.7527 11.0017V29.8731C37.7527 29.8827 37.7541 29.8923 37.7524 29.9016C37.727 30.0505 37.7949 30.1662 37.8853 30.2747C38.3189 30.7951 38.8515 31.1635 39.5175 31.3265C40.2536 31.5067 40.9843 31.4918 41.7081 31.2611C42.2923 31.0748 42.7544 30.7163 43.1381 30.249C43.1619 30.2199 43.1805 30.1864 43.2028 30.1559C43.2379 30.1082 43.2526 30.0553 43.2484 29.9963C43.246 29.9634 43.248 29.9302 43.248 29.8971V11.0257V10.8227C43.2144 10.808 43.1863 10.7907 43.1558 10.7834C42.9899 10.7433 42.8235 10.7047 42.6571 10.6675C42.4949 10.6311 42.3324 10.5947 42.1808 10.5257C42.1125 10.4946 42.0445 10.457 41.9869 10.4096C41.8933 10.3327 41.888 10.2462 41.9539 10.1456C41.9792 10.1071 42.0135 10.0834 42.0574 10.0785C42.114 10.0723 42.1711 10.07 42.228 10.07C43.3722 10.0705 44.5164 10.0714 45.6606 10.0723C45.7507 10.0723 45.841 10.0697 45.9312 10.07C45.9738 10.0702 46.0164 10.0744 46.0591 10.0771C46.1653 10.0838 46.2605 10.2605 46.1746 10.3666C46.1319 10.4197 46.0805 10.4624 46.0192 10.4879C45.9103 10.5338 45.8002 10.5795 45.6866 10.6108C45.5267 10.6549 45.3632 10.6852 45.2016 10.7227C45.1231 10.7409 45.0449 10.7607 44.9673 10.7822C44.9407 10.7896 44.916 10.804 44.8821 10.8187C44.8815 10.885 44.8805 10.9504 44.8805 11.0159C44.8805 15.2741 44.8805 19.5323 44.8805 23.7906C44.8805 24.7358 44.8785 25.681 44.882 26.6264C44.8829 26.8541 44.8664 27.0796 44.8362 27.3044C44.7558 27.9007 44.6224 28.4846 44.4149 29.0507C44.2119 29.6045 43.9467 30.1249 43.5761 30.5881C43.1777 31.0861 42.6902 31.467 42.0912 31.6991C41.7209 31.8425 41.3362 31.923 40.9396 31.9362C40.6645 31.9453 40.3888 31.9486 40.1138 31.9383C39.0384 31.8976 38.1541 31.4653 37.4682 30.6375C37.1082 30.203 36.8455 29.7124 36.6415 29.1896C36.4365 28.6636 36.2944 28.1204 36.208 27.5633C36.1783 27.3718 36.1545 27.1796 36.1323 26.9873C36.1236 26.9124 36.1242 26.8363 36.1242 26.7609C36.1239 21.5148 36.1239 16.2688 36.1239 11.0228V10.8323L36.1242 10.8321Z" fill="black"/>
<path d="M50.0274 31.0354C50.1033 31.0627 50.1725 31.0943 50.2449 31.1125C50.447 31.1637 50.6504 31.2102 50.8537 31.2568C51.0156 31.2939 51.1777 31.3312 51.3316 31.3942C51.4015 31.4229 51.4708 31.4553 51.5354 31.4942C51.5791 31.5204 51.6178 31.558 51.6524 31.596C51.7625 31.7169 51.6484 31.9458 51.5059 31.9391C51.4303 31.9355 51.3542 31.9436 51.2783 31.9431C51.1359 31.9422 50.9936 31.9371 50.8513 31.9371C49.7972 31.9365 48.7431 31.9365 47.6892 31.9371C47.523 31.9371 47.3569 31.9426 47.1907 31.9434C47.115 31.9438 47.0383 31.945 46.9634 31.9352C46.8202 31.9164 46.7368 31.7409 46.816 31.6203C46.8487 31.5707 46.8969 31.5251 46.9483 31.4951C47.0336 31.4456 47.1245 31.3999 47.2186 31.3712C47.3952 31.3174 47.5756 31.2758 47.7549 31.231C47.9159 31.1907 48.0778 31.1544 48.2384 31.1126C48.2876 31.1 48.3408 31.0913 48.3861 31.0479C48.3878 31.0246 48.3918 30.997 48.3918 30.9692C48.3921 24.3058 48.3921 17.6421 48.3921 10.973C48.3536 10.9553 48.3218 10.9346 48.2868 10.9254C48.0989 10.876 47.9102 10.8292 47.7218 10.782C47.5654 10.743 47.4073 10.7098 47.2529 10.6645C47.158 10.6366 47.0665 10.5947 46.9771 10.5514C46.9268 10.5269 46.8794 10.492 46.8389 10.453C46.7395 10.3578 46.74 10.2209 46.8404 10.126C46.866 10.1019 46.9057 10.0872 46.9414 10.0804C46.9922 10.0708 47.0453 10.0698 47.0974 10.0698C48.0375 10.0692 48.9775 10.0693 49.9176 10.0697C49.9457 10.0697 49.9739 10.0736 50.01 10.0764C50.0148 10.1089 50.0228 10.1403 50.0233 10.1717C50.0249 10.2994 50.024 10.427 50.024 10.5546C50.024 11.3108 50.0238 12.0669 50.0245 12.8231C50.0245 12.8727 50.0161 12.9243 50.0386 12.9876C50.0796 12.9513 50.1111 12.9252 50.1404 12.8971C50.8073 12.2599 51.5312 11.696 52.3213 11.2176C52.8582 10.8927 53.4189 10.6174 54.0132 10.4114C54.5129 10.2381 55.0252 10.1211 55.5533 10.0815C55.9378 10.0528 56.3218 10.0649 56.7025 10.1346C56.7113 10.1361 56.7194 10.1424 56.7372 10.1508C56.8121 10.3296 56.8501 10.5213 56.8347 10.7228C56.8337 10.7368 56.8309 10.7508 56.8274 10.7646C56.816 10.8084 56.7934 10.8315 56.7482 10.8324C56.6914 10.8335 56.6344 10.8294 56.5779 10.8242C56.3416 10.8021 56.1061 10.7696 55.8694 10.7576C54.8195 10.704 53.8356 10.9468 52.9059 11.4251C52.2178 11.7791 51.6031 12.2356 51.0359 12.7579C50.7044 13.0631 50.3943 13.3887 50.0969 13.7268C50.0432 13.7881 50.0138 13.8504 50.0237 13.9308C50.0254 13.9448 50.0239 13.9592 50.0239 13.9733C50.0227 18.2033 50.0214 22.4332 50.0202 26.6631C50.0198 28.0432 50.0201 29.423 50.0204 30.8032C50.0204 30.878 50.0249 30.9529 50.0274 31.0354Z" fill="black"/>
<path d="M76.1907 8.57607C76.1937 8.484 76.1535 8.34018 76.0717 8.20854C75.8183 7.80042 75.2471 7.67456 74.86 8.09545C74.5565 8.42562 74.5943 8.95969 74.9355 9.25072C75.2232 9.49622 75.6243 9.49716 75.9111 9.25055C76.0977 9.09006 76.1878 8.88412 76.1907 8.57607ZM75.4242 7.57882C76.0046 7.57942 76.4851 8.05902 76.4845 8.63658C76.4838 9.21515 76.0038 9.69288 75.4226 9.69297C74.8429 9.69322 74.3624 9.2137 74.3626 8.63513C74.3629 8.05741 74.8445 7.57814 75.4242 7.57874V7.57882Z" fill="black"/>
<path d="M75.3216 8.29784C75.2881 8.36839 75.3019 8.44047 75.311 8.51935C75.3818 8.53544 75.4464 8.53603 75.5108 8.51638C75.5628 8.50055 75.587 8.46532 75.5866 8.41077C75.5862 8.35639 75.5624 8.3238 75.5089 8.30618C75.4491 8.2867 75.3881 8.28738 75.3216 8.29784ZM75.0157 8.07268C75.2252 8.0674 75.4151 8.0509 75.6011 8.08902C75.869 8.14399 75.9232 8.36499 75.8531 8.57883C75.8335 8.63874 75.7878 8.6818 75.7291 8.70887C75.7001 8.72223 75.6713 8.73618 75.6348 8.75345C75.6822 8.82723 75.7258 8.89395 75.7685 8.96143C75.8082 9.02415 75.8532 9.08389 75.8911 9.16303C75.7903 9.1843 75.7032 9.17792 75.6064 9.16941C75.5735 9.11682 75.5382 9.06176 75.5043 9.00594C75.4627 8.93752 75.4231 8.86757 75.3798 8.80017C75.3692 8.78384 75.3474 8.77499 75.3208 8.7555C75.296 8.83285 75.3086 8.89854 75.3058 8.96245C75.3031 9.0273 75.3033 9.09248 75.3021 9.15452C75.1816 9.1832 75.146 9.18362 75.0248 9.15766C75.0221 9.13758 75.016 9.11512 75.016 9.09257C75.0154 8.75831 75.0157 8.42421 75.0157 8.07268Z" fill="black"/>
</g>
<defs>
<clipPath id="clip0_7602_1933">
<rect width="53" height="32" fill="white" transform="translate(23.5)"/>
</clipPath>
</defs>
</svg>
