<svg preserveAspectRatio="none" overflow="visible" style="display: block;" width="100" height="10.5069" viewBox="0 0 100 10.5069" fill="none" xmlns="http://www.w3.org/2000/svg">
<g id="Group 2775">
<path id="Vector" d="M78.8865 0.191703C79.1016 0.406802 79.1856 0.606173 79.2611 0.897455C79.2823 0.976741 79.3035 1.05603 79.3254 1.13772C79.3363 1.1795 79.3471 1.22129 79.3583 1.26435C79.412 1.46985 79.4686 1.67453 79.5253 1.8792C79.5443 1.94816 79.5443 1.94816 79.5636 2.01851C79.7165 2.56894 79.8805 3.1161 80.0428 3.66381C80.2947 4.51545 80.5347 5.37018 80.7705 6.22642C80.7833 6.27298 80.7961 6.31954 80.8094 6.3675C80.8333 6.45458 80.8572 6.54166 80.8811 6.62877C80.9275 6.79776 80.976 6.96462 81.0314 7.13094C81.0938 7.16217 81.0938 7.16217 81.1576 7.19403C81.1679 7.15512 81.1781 7.11622 81.1887 7.07614C81.3274 6.55929 81.4813 6.04741 81.6373 5.53561C81.6656 5.44279 81.6938 5.34997 81.722 5.25715C81.7811 5.06297 81.8402 4.86881 81.8994 4.67467C81.959 4.4791 82.0185 4.28351 82.0779 4.08788C82.2349 3.57104 82.3925 3.05441 82.5516 2.53822C82.6169 2.32609 82.6818 2.11385 82.7455 1.90123C82.8118 1.68022 82.8792 1.45959 82.9468 1.239C82.9656 1.175 82.9844 1.11101 83.0038 1.04508C83.1109 0.700676 83.2029 0.47777 83.4917 0.254787C83.7047 0.183781 83.8182 0.175216 84.0318 0.242959C84.4604 0.627567 84.5701 1.22388 84.7165 1.75935C84.862 2.28808 85.0287 2.80898 85.1989 3.33013C85.3937 3.92784 85.5839 4.52598 85.7575 5.13024C85.8319 5.38567 85.9111 5.63929 85.9914 5.89292C86.1144 6.28203 86.2275 6.67294 86.3304 7.06786C86.3627 7.19165 86.4485 7.20502 86.5197 7.06786C86.5397 6.99525 86.5597 6.92264 86.5803 6.84783C86.7694 6.16103 86.9587 5.47428 87.1482 4.78759C87.2456 4.43462 87.3429 4.08163 87.4401 3.7286C87.534 3.38741 87.6281 3.04629 87.7223 2.7052C87.7581 2.57555 87.7938 2.44588 87.8294 2.31619C87.9376 1.92286 88.0471 1.52998 88.1599 1.13796C88.1781 1.07412 88.1781 1.07412 88.1968 1.00899C88.2282 0.900865 88.2611 0.793202 88.2942 0.685594C88.3113 0.629902 88.3283 0.574209 88.3459 0.51683C88.4272 0.350323 88.5046 0.283745 88.6646 0.191703C88.9666 0.158143 89.0976 0.145961 89.3545 0.309985C89.519 0.479439 89.5454 0.5305 89.5594 0.768006C89.547 1.02748 89.4955 1.25808 89.4238 1.50589C89.4105 1.55346 89.3972 1.60103 89.3836 1.65004C89.3395 1.80749 89.2947 1.9647 89.2498 2.12193C89.2184 2.23374 89.187 2.34557 89.1556 2.45741C89.0717 2.75642 88.9871 3.05523 88.9023 3.35401C88.8149 3.66234 88.7282 3.97084 88.6413 4.27933C88.5372 4.64929 88.433 5.01923 88.3286 5.3891C88.1262 6.10635 87.926 6.82417 87.7291 7.54296C87.7068 7.62427 87.6845 7.70558 87.6622 7.78689C87.5405 8.23005 87.5405 8.23006 87.4198 8.67345C87.3668 8.86852 87.3133 9.06342 87.2597 9.2583C87.2373 9.3418 87.2373 9.3418 87.2145 9.42698C87.121 9.76423 87.0332 10.0495 86.7523 10.2773C86.5327 10.3692 86.4297 10.3603 86.2043 10.2851C85.7997 9.96522 85.6836 9.5042 85.5498 9.02741C85.4411 8.64449 85.325 8.26434 85.2057 7.8846C84.9975 7.2205 84.7951 6.55456 84.5917 5.88898C84.5497 5.7516 84.5077 5.61422 84.4657 5.47684C84.4452 5.41004 84.4248 5.34324 84.4038 5.27441C84.3638 5.14372 84.3237 5.01304 84.2836 4.88238C84.2015 4.61499 84.1198 4.3476 84.0415 4.0791C84.0195 4.00458 83.9975 3.93006 83.9749 3.85329C83.9572 3.79174 83.9395 3.7302 83.9212 3.66679C83.8827 3.52376 83.8827 3.52376 83.744 3.47207C83.527 3.64066 83.4752 3.8653 83.4013 4.11827C83.3872 4.16467 83.3731 4.21108 83.3586 4.25889C83.312 4.41282 83.2663 4.567 83.2206 4.72118C83.188 4.82934 83.1554 4.93748 83.1228 5.0456C83.0365 5.33146 82.951 5.61753 82.8657 5.90365C82.7803 6.18944 82.6944 6.47507 82.6085 6.76069C82.5918 6.81619 82.5751 6.87168 82.5579 6.92886C82.4754 7.2033 82.3928 7.4777 82.31 7.75205C82.2941 7.8046 82.2783 7.85714 82.2619 7.91128C82.2309 8.01408 82.1998 8.11687 82.1688 8.21966C82.1016 8.44226 82.0346 8.66494 81.9691 8.88805C81.9107 9.08682 81.8512 9.2852 81.7914 9.48353C81.7759 9.53777 81.7604 9.59201 81.7445 9.64789C81.6516 9.95037 81.5644 10.1125 81.2837 10.2851C81.068 10.3681 80.9897 10.3564 80.7712 10.2733C80.4393 10.0641 80.3564 9.80894 80.2587 9.44175C80.2458 9.39522 80.233 9.3487 80.2197 9.30077C80.1773 9.14662 80.1356 8.99227 80.094 8.83791C80.0643 8.72919 80.0345 8.62048 80.0046 8.51178C79.9259 8.22437 79.8479 7.93677 79.7699 7.64913C79.7076 7.41952 79.6448 7.19006 79.582 6.96059C79.2652 5.80375 78.9533 4.6459 78.6559 3.48393C78.5399 3.03239 78.4106 2.58503 78.2788 2.13785C77.8902 0.811939 77.8902 0.811939 77.9403 0.507123C78.1772 0.195367 78.4988 0.0718597 78.8865 0.191703Z" fill="black"/>
<path id="Vector_2" d="M74.4707 0.822674C74.8389 1.086 75.7671 1.82896 76.1739 2.65211C76.2806 2.9249 76.3852 3.19843 76.4894 3.4722C76.5184 3.54417 76.5184 3.54417 76.548 3.61759C77.0569 4.96577 76.8408 6.67343 76.2631 7.96521C75.7257 9.02082 74.9308 9.81702 73.7844 10.1986C72.0119 10.7363 70.3018 10.5303 68.6775 9.68795C67.825 9.20464 67.0821 8.5195 66.6483 7.63575C66.6257 7.59509 66.6032 7.55443 66.58 7.51254C66.0573 6.5494 66.0353 5.39254 66.3328 4.35538C66.6642 3.36209 67.2545 2.57776 67.973 1.83202C68.0098 1.79128 68.0465 1.75054 68.0844 1.70856C68.3198 1.45469 68.5885 1.25375 68.868 1.05135C68.9063 1.02349 68.9446 0.99563 68.984 0.966923C69.3043 0.740763 69.6094 0.543519 69.9641 0.388972C70.0025 0.371976 70.041 0.35498 70.0805 0.33747C71.5138 -0.284361 73.1832 -0.00297499 74.4707 0.822674ZM70.4964 1.5166C70.4301 1.5497 70.3638 1.58279 70.2955 1.61689C68.9998 2.30014 67.9562 3.4038 67.5142 4.81643C67.2855 5.6634 67.4067 6.35318 67.817 7.12245C68.42 8.15811 69.393 8.80632 70.5398 9.11822C71.667 9.3893 72.9503 9.27496 73.966 8.70817C74.7421 8.23024 75.1704 7.5505 75.4012 6.6816C75.472 6.36803 75.527 6.06436 75.5431 5.74323C75.5472 5.66394 75.5512 5.58465 75.5554 5.50296C75.5954 4.35041 75.2609 3.37185 74.5062 2.49834C73.7744 1.7367 72.9108 1.2808 71.8505 1.24329C71.3457 1.23436 70.9448 1.26719 70.4964 1.5166Z" fill="black"/>
<path id="Vector_3" d="M92.3234 0.191704C92.7371 0.48054 93.036 0.953346 93.3419 1.34964C93.5116 1.5683 93.6888 1.77959 93.869 1.9896C94.1065 2.26674 94.3353 2.54891 94.559 2.83729C94.8287 3.18477 95.1099 3.52021 95.3977 3.85281C95.6157 4.10506 95.8268 4.36157 96.0336 4.62311C96.2132 4.84931 96.3954 5.07345 96.5777 5.29757C96.6132 5.34124 96.6487 5.38491 96.6853 5.42991C96.976 5.78721 97.2674 6.14385 97.5594 6.5001C97.6606 6.62363 97.7618 6.74717 97.863 6.87072C97.9077 6.92521 97.9523 6.97969 97.9983 7.03583C98.0876 7.14542 98.175 7.25652 98.261 7.36874C98.3862 7.51744 98.4422 7.55221 98.6318 7.57253C98.7236 7.57253 98.7572 7.48827 98.758 7.44637C98.7577 7.41089 98.7574 7.37542 98.7571 7.33887C98.7502 6.47539 98.745 5.61192 98.7417 4.74841C98.74 4.33083 98.7378 3.91326 98.7342 3.49568C98.7308 3.09279 98.7289 2.68991 98.7281 2.287C98.7275 2.1332 98.7264 1.97939 98.7247 1.82559C98.7224 1.61035 98.7221 1.39519 98.7222 1.17993C98.7211 1.11618 98.7199 1.05243 98.7188 0.986742C98.721 0.688672 98.7231 0.55276 98.909 0.309982C99.0777 0.188634 99.1526 0.148673 99.3573 0.152277C99.4035 0.151464 99.4497 0.15065 99.4973 0.149813C99.7153 0.213278 99.812 0.335199 99.9566 0.507124C99.9963 0.692836 99.9963 0.692836 99.9967 0.902169C99.9975 0.981767 99.9984 1.06136 99.9994 1.14337C99.9987 1.2311 99.9981 1.31883 99.9974 1.40656C99.9978 1.49933 99.9984 1.59209 99.9991 1.68485C100.001 1.93641 100 2.18793 99.999 2.43949C99.9982 2.70287 99.9989 2.96625 99.9994 3.22962C100 3.67191 99.9992 4.11417 99.9977 4.55645C99.996 5.06764 99.9966 5.57879 99.9983 6.08997C99.9997 6.52903 99.9999 6.96807 99.9991 7.40712C99.9986 7.66928 99.9986 7.93142 99.9996 8.19358C100.001 8.44007 99.9999 8.6865 99.9981 8.93299C99.9976 9.02339 99.9978 9.1138 99.9985 9.2042C99.9993 9.32769 99.998 9.45119 99.9967 9.57468C99.9965 9.64376 99.9964 9.71284 99.9963 9.78401C99.9431 10.0331 99.8377 10.1282 99.6412 10.2851C99.3838 10.3358 99.244 10.3464 99.0163 10.2166C98.6608 9.92968 98.3939 9.55301 98.1181 9.19251C97.949 8.97247 97.7718 8.76073 97.591 8.55034C97.3535 8.27322 97.1246 7.99103 96.901 7.70264C96.6314 7.3554 96.3505 7.02012 96.0628 6.68782C95.8384 6.42823 95.6215 6.16381 95.4086 5.89465C95.282 5.73507 95.1534 5.5773 95.0242 5.41979C94.7498 5.08513 94.4768 4.74929 94.2041 4.41323C93.9569 4.10878 93.7084 3.80547 93.4592 3.50263C93.2944 3.29826 93.1364 3.08892 92.9802 2.87795C92.9508 2.84502 92.9214 2.81208 92.8912 2.77815C92.8496 2.77815 92.8079 2.77815 92.765 2.77815C92.7442 5.17219 92.7167 7.49179 92.6953 9.95837C92.6933 10.1891 92.4153 10.2944 92.1105 10.297C92.0619 10.2979 92.0133 10.2988 91.9632 10.2997C91.7987 10.2831 91.7034 10.2514 91.5664 10.159C91.4307 9.94856 91.424 9.77402 91.423 9.52679C91.4223 9.44896 91.4217 9.37114 91.4211 9.29095C91.421 9.20488 91.421 9.11881 91.4209 9.03274C91.4205 8.94195 91.4199 8.85117 91.4193 8.76038C91.418 8.51391 91.4174 8.26744 91.4171 8.02096C91.4169 7.86693 91.4165 7.7129 91.416 7.55887C91.4145 7.02138 91.4136 6.48389 91.4134 5.94639C91.4132 5.44557 91.4113 4.94477 91.4087 4.44395C91.4065 4.01379 91.4055 3.58364 91.4055 3.15348C91.4054 2.89664 91.4049 2.63982 91.4031 2.38299C91.4014 2.14137 91.4013 1.8998 91.4023 1.65819C91.4024 1.56964 91.402 1.48109 91.401 1.39255C91.393 0.640509 91.393 0.640509 91.5925 0.392344C91.8448 0.179718 91.9916 0.143527 92.3234 0.191704Z" fill="black"/>
<path id="Vector_4" d="M4.99546 0.0459416C5.10438 0.046338 5.10438 0.046338 5.2155 0.0467424C5.96603 0.0567064 6.61022 0.170505 7.2862 0.507243C7.39246 0.554994 7.49891 0.602315 7.60556 0.649182C7.68836 0.685981 7.77116 0.72278 7.85396 0.759579L7.97508 0.840889C8.75003 1.22203 9.67264 2.44135 10.0801 3.41893C10.5062 4.52283 10.5045 5.90772 10.0816 7.01672C10.0346 7.11866 9.9857 7.21977 9.93573 7.32032C9.8995 7.39946 9.86336 7.47864 9.8273 7.55787C9.22831 8.84436 8.2847 9.7209 6.95501 10.2143C5.61423 10.6819 4.14446 10.5745 2.85554 9.99522C2.28604 9.70645 1.81134 9.34359 1.35631 8.89742C1.30751 8.8509 1.25872 8.80439 1.20845 8.75646C0.404846 7.93634 0.0152611 6.79928 0 5.66436C0.00945215 4.74965 0.20106 3.8545 0.599298 3.0306C0.658581 2.89924 0.717726 2.76782 0.776722 2.63633L0.822197 2.55038C1.24134 1.59022 2.50742 0.647371 3.42847 0.259836C3.95254 0.0805986 4.44277 0.0432116 4.99546 0.0459416ZM2.36516 2.48182C2.25512 2.61973 2.15141 2.75993 2.05023 2.90444C2.02112 2.94518 1.99201 2.98592 1.96201 3.02789C1.31163 3.99558 1.13369 5.34579 1.33462 6.48199C1.60977 7.4806 2.27219 8.20339 3.15075 8.72122C4.151 9.22574 5.38983 9.42226 6.47892 9.09307C7.61142 8.64703 8.29537 7.93343 8.78223 6.83117C9.21703 5.73293 9.23261 4.61917 8.78223 3.52813C8.56097 3.09238 8.26014 2.74469 7.91704 2.39976C7.88435 2.36488 7.85166 2.32999 7.81798 2.29405C7.12306 1.61913 5.97933 1.26077 5.03883 1.23665C3.93249 1.27133 3.09348 1.64722 2.36516 2.48182Z" fill="black"/>
<path id="Vector_5" d="M56.1763 0.191689C56.399 0.346412 56.5634 0.517974 56.7283 0.731846C56.9086 0.962598 57.0905 1.19152 57.2763 1.41788C57.3238 1.4757 57.3712 1.53352 57.42 1.59309C57.4676 1.65107 57.5152 1.70905 57.5642 1.76879C57.6588 1.88443 57.7534 2.00008 57.848 2.11575C57.987 2.28558 58.1259 2.45539 58.265 2.62511C58.5832 3.01355 58.9 3.40306 59.2166 3.79287C59.506 4.14926 59.7965 4.50477 60.0875 4.8599C60.1822 4.97555 60.2768 5.09121 60.3714 5.20687C60.4182 5.26412 60.4651 5.32136 60.5133 5.38035C60.9392 5.90079 60.9392 5.90079 61.0806 6.07378C61.1767 6.19119 61.273 6.30849 61.3694 6.42567C61.4174 6.48406 61.4654 6.54244 61.5148 6.6026C61.5615 6.6592 61.6082 6.7158 61.6563 6.77411C61.8203 6.97837 61.9741 7.18935 62.1249 7.40347C62.2758 7.61759 62.5483 7.88641 62.5478 7.57252C62.5478 7.53672 62.5481 7.50092 62.5483 7.46404C62.552 6.59265 62.5568 5.72127 62.5627 4.84989C62.5655 4.42849 62.568 4.00711 62.5697 3.5857C62.5713 3.17912 62.5738 2.77255 62.577 2.36598C62.5781 2.21077 62.5788 2.05556 62.5792 1.90034C62.5798 1.68314 62.5816 1.46598 62.5836 1.24879C62.5835 1.15228 62.5835 1.15228 62.5833 1.05381C62.5907 0.50253 62.6148 0.397665 62.8001 0.254773C62.9502 0.139083 63.008 0.146991 63.1823 0.146991C63.2368 0.144633 63.2998 0.147992 63.3989 0.164829C63.6127 0.201119 63.6829 0.23906 63.8095 0.444025C63.8455 0.62942 63.8414 0.621798 63.842 0.83106C63.8428 0.910479 63.8436 0.989899 63.8444 1.07173C63.844 1.15958 63.8436 1.24744 63.8431 1.3353C63.8436 1.42795 63.8441 1.5206 63.8448 1.61325C63.8462 1.86482 63.846 2.11635 63.8455 2.36792C63.8451 2.57799 63.8456 2.78806 63.8461 2.99812C63.8471 3.4938 63.8469 3.98946 63.8458 4.48513C63.8448 4.99627 63.8458 5.50739 63.8478 6.01853C63.8495 6.45753 63.85 6.89652 63.8494 7.33552C63.8491 7.59765 63.8493 7.85976 63.8505 8.12188C63.8517 8.36847 63.8513 8.61501 63.8498 8.86159C63.8495 8.95197 63.8497 9.04235 63.8505 9.13273C63.8567 9.89993 63.8567 9.89993 63.6646 10.1496C63.4793 10.2969 63.3557 10.3423 63.1173 10.3201C62.6316 10.1872 62.3276 9.63751 62.0362 9.2578C61.8663 9.0372 61.6884 8.82459 61.5069 8.6134C61.2694 8.33628 61.0406 8.0541 60.8169 7.76571C60.5817 7.46265 60.339 7.16828 60.0875 6.87859C59.8054 6.55363 59.5363 6.22113 59.2725 5.88114C59.0452 5.5892 58.8086 5.30635 58.5684 5.02502C58.3537 4.77337 58.1457 4.51729 57.9402 4.25814C57.7593 4.03113 57.5748 3.80718 57.3904 3.58295C57.2063 3.35688 57.0263 3.1277 56.8468 2.89789C56.7523 2.77205 56.7523 2.77205 56.6179 2.71505C56.6178 2.77185 56.6178 2.77185 56.6176 2.82979C56.6153 3.75062 56.6116 4.67144 56.6063 5.59226C56.6038 6.03757 56.6018 6.48286 56.6008 6.92817C56.5999 7.35766 56.5977 7.78713 56.5947 8.21661C56.5937 8.38073 56.5932 8.54485 56.5932 8.70897C56.593 8.93829 56.5913 9.16754 56.5893 9.39685C56.5896 9.46519 56.5899 9.53353 56.5902 9.60393C56.5889 9.69748 56.5889 9.69748 56.5876 9.79291C56.5873 9.84717 56.5871 9.90142 56.5869 9.95732C56.5548 10.0959 56.5548 10.0959 56.4362 10.208C56.2746 10.3012 56.1726 10.3085 55.9871 10.3048C55.9337 10.3046 55.8804 10.3044 55.8254 10.3041C55.662 10.2839 55.558 10.2466 55.4193 10.159C55.3336 9.98753 55.3477 9.85251 55.3469 9.66051C55.3465 9.58117 55.346 9.50183 55.3456 9.42009C55.3454 9.33167 55.3452 9.24325 55.3451 9.15484C55.3447 9.0621 55.3443 8.96937 55.3438 8.87664C55.3427 8.6243 55.342 8.37196 55.3415 8.11961C55.3412 7.96201 55.3408 7.80441 55.3404 7.64681C55.3392 7.15386 55.3383 6.66091 55.3378 6.16796C55.3372 5.59865 55.3355 5.02935 55.333 4.46004C55.3311 4.02019 55.3301 3.58035 55.3299 3.14049C55.3298 2.87769 55.3292 2.61491 55.3276 2.35212C55.3262 2.10487 55.3259 1.85765 55.3265 1.6104C55.3266 1.51969 55.3262 1.42897 55.3253 1.33827C55.3242 1.21435 55.3248 1.09043 55.3255 0.966512C55.3253 0.897186 55.3252 0.82786 55.325 0.756433C55.3265 0.495559 55.4194 0.385964 55.6086 0.254773C55.8101 0.115002 55.9908 0.128689 56.1763 0.191689Z" fill="black"/>
<path id="Vector_6" d="M38.702 0.191835C39.0867 0.187092 39.4713 0.183692 39.856 0.181439C39.9863 0.180498 40.1167 0.179214 40.2471 0.177558C41.8485 0.157739 43.4409 0.347106 44.6765 1.47389C45.2273 2.01628 45.5283 2.72109 45.5388 3.48797C45.5424 4.36065 45.287 5.10564 44.7581 5.80631C44.7244 5.85217 44.6908 5.89804 44.6561 5.94529C44.1648 6.5611 43.5005 6.8699 42.7308 6.96671C42.5654 6.98259 42.4006 6.9956 42.2347 7.00491C42.5228 7.3492 42.8308 7.66709 43.1495 7.98271C43.4328 8.26364 43.7133 8.54319 43.97 8.84913C44.0399 8.93178 44.1123 9.01231 44.1859 9.09161C44.2264 9.13552 44.2669 9.17943 44.3086 9.22467C44.3449 9.2633 44.3812 9.30193 44.4185 9.34172C44.5239 9.49084 44.5531 9.5993 44.5688 9.7806C44.5688 10.0184 44.3977 10.2643 44.2534 10.2853C43.9586 10.3281 43.781 10.3481 43.5275 10.181C43.3171 9.99341 43.1253 9.79711 42.9386 9.58634C42.6612 9.27317 42.3762 8.97115 42.079 8.67688C42.043 8.64125 42.007 8.60562 41.97 8.5689C41.8213 8.42195 41.6724 8.27523 41.5232 8.12882C41.1533 7.7654 40.786 7.39947 40.4428 7.01057C40.397 6.95901 40.3513 6.90745 40.3041 6.85433C40.184 6.62943 40.2196 6.49089 40.2791 6.2479C40.4245 6.05385 40.6178 5.94576 40.8469 5.86939C40.9788 5.85356 41.111 5.8403 41.2434 5.82849C41.3225 5.82101 41.4015 5.81353 41.483 5.80582C41.6486 5.79054 41.8142 5.77558 41.9798 5.76097C42.9196 5.67802 42.9196 5.67802 43.6857 5.17547C44.1238 4.60339 44.3056 3.93284 44.2179 3.21987C44.1235 2.7263 43.897 2.43027 43.4964 2.13561C42.5846 1.57541 41.5235 1.43894 40.4763 1.42986C40.4091 1.42898 40.3419 1.4281 40.2726 1.42719C40.2099 1.42758 40.1471 1.42798 40.0825 1.42838C39.998 1.4287 39.998 1.4287 39.9117 1.42903C39.8438 1.44115 39.8438 1.44115 39.7745 1.45351C39.633 1.66571 39.6326 1.73437 39.6328 1.98235C39.6325 2.08809 39.6325 2.08809 39.6321 2.19596C39.6326 2.31203 39.6326 2.31203 39.6332 2.43044C39.633 2.55547 39.6328 2.68051 39.6326 2.80554C39.6325 2.93999 39.6327 3.07444 39.6329 3.20889C39.6334 3.48907 39.6327 3.76925 39.6318 4.04943C39.6294 4.84616 39.6283 5.64289 39.629 6.43963C39.6294 6.87965 39.6287 7.31965 39.6267 7.75966C39.6255 8.03821 39.6258 8.31672 39.627 8.59527C39.6275 8.80922 39.626 9.02315 39.6248 9.2371C39.6259 9.35298 39.6259 9.35298 39.6271 9.47119C39.6213 9.99167 39.6213 9.99167 39.4344 10.2054C39.1624 10.3374 39.0226 10.3622 38.7217 10.301C38.5128 10.2222 38.5128 10.2222 38.3866 10.0329C38.3706 9.86258 38.3706 9.86258 38.3702 9.65264C38.3697 9.57313 38.3693 9.49361 38.3688 9.41169C38.369 9.3234 38.3691 9.23511 38.3693 9.14682C38.369 9.05398 38.3687 8.96113 38.3683 8.86829C38.3675 8.61595 38.3674 8.36362 38.3676 8.11128C38.3677 7.90074 38.3673 7.69019 38.367 7.47964C38.3663 6.98298 38.3663 6.48632 38.3667 5.98966C38.3671 5.47705 38.3663 4.96446 38.365 4.45185C38.3638 4.01194 38.3635 3.57204 38.3637 3.13213C38.3638 2.86931 38.3636 2.60649 38.3627 2.34367C38.362 2.09652 38.3621 1.8494 38.3629 1.60225C38.363 1.51152 38.3629 1.42078 38.3624 1.33004C38.3617 1.20625 38.3623 1.08244 38.363 0.958647C38.363 0.889344 38.363 0.820042 38.363 0.74864C38.363 0.39315 38.4165 0.191835 38.637 0.191835H38.702Z" fill="black"/>
<path id="Vector_7" d="M12.8967 0.176273C12.9506 0.175948 13.0046 0.175622 13.0601 0.175287C13.226 0.193106 13.2886 0.18799 13.4297 0.277615C13.5425 0.349267 13.5417 0.688069 13.5425 0.890157C13.5429 0.936149 13.5433 0.982141 13.5437 1.02953C13.5446 1.12986 13.5454 1.2302 13.546 1.33054C13.547 1.49106 13.5485 1.65157 13.5501 1.81208C13.5545 2.26871 13.5583 2.72534 13.5616 3.18197C13.5824 6.05851 13.3823 7.85533 14.2567 8.68941C14.7015 9.11361 15.2088 9.18323 15.8053 9.18102C16.2039 9.166 16.4885 9.06151 16.8119 8.83455C16.8532 8.80568 16.8945 8.77681 16.9371 8.74707C17.5382 8.27821 17.7104 7.61811 17.8042 6.88634C17.8149 6.77621 17.8245 6.66596 17.8331 6.55564C17.8381 6.49169 17.8431 6.42775 17.8483 6.36186C17.8986 5.59675 17.8961 4.83026 17.8961 4.06382C17.8961 3.9952 17.8961 3.92658 17.8961 3.85588C17.8953 3.18188 17.8908 2.50875 17.8587 1.83543C17.8566 1.78916 17.8545 1.7429 17.8523 1.69523C17.8426 1.4866 17.831 1.27861 17.816 1.07026C17.788 0.558045 17.7946 0.479395 17.9563 0.301948C18.1179 0.124502 18.2582 0.151136 18.4876 0.156559C18.5462 0.156478 18.6048 0.156397 18.6652 0.156313C18.9107 0.156559 19.0014 0.258212 19.0829 0.44438C19.121 0.607865 19.121 0.607865 19.1296 0.798103C19.133 0.871168 19.1365 0.944233 19.1401 1.01951C19.1513 1.48574 19.1564 1.95161 19.1566 2.41797C19.1568 2.52834 19.157 2.63871 19.1572 2.74908C19.1576 2.97944 19.1577 3.20981 19.1577 3.44018C19.1577 3.7316 19.1585 4.02301 19.1596 4.31444C19.1603 4.54226 19.1604 4.77008 19.1604 4.9979C19.1605 5.10515 19.1608 5.21239 19.1613 5.31963C19.1637 5.90075 19.1454 6.47441 19.0886 7.05303C19.0836 7.10479 19.0785 7.15656 19.0733 7.20989C18.9647 8.22203 18.5514 9.06148 17.7581 9.71773C16.8516 10.3643 16.0541 10.5985 14.959 10.4449C14.1953 10.2791 13.5794 9.88653 13.0899 9.27614L12.9007 9.0238C12.1452 7.53685 12.2622 5.81422 12.2592 4.34967C12.259 4.25073 12.2588 4.15179 12.2586 4.05285C12.2582 3.84781 12.2581 3.64277 12.2581 3.43773C12.2581 3.17637 12.2573 2.91502 12.2562 2.65366C12.2555 2.45027 12.2554 2.24689 12.2554 2.0435C12.2553 1.94713 12.2551 1.85076 12.2546 1.75439C12.25 0.769131 12.2112 0.578074 12.396 0.318212C12.5506 0.144078 12.6613 0.174857 12.8967 0.176273Z" fill="black"/>
<path id="Vector_8" d="M30.3728 0.179746C30.4247 0.179231 30.4767 0.178715 30.5301 0.178183C30.7023 0.176615 30.8745 0.175573 31.0467 0.174664C31.1054 0.174328 31.1642 0.173992 31.2247 0.173646C31.5354 0.17196 31.8461 0.170738 32.1569 0.169828C32.4782 0.168777 32.7995 0.165951 33.1208 0.162739C33.3676 0.160619 33.6144 0.159888 33.8612 0.159531C33.9796 0.159107 34.0981 0.158144 34.2165 0.156636C34.3822 0.154647 34.5478 0.154636 34.7135 0.155104C34.7871 0.153552 34.7871 0.153552 34.8621 0.151968C35.1036 0.154766 35.2099 0.17083 35.389 0.338371C35.516 0.562535 35.5205 0.694524 35.4848 0.948922C35.3833 1.1493 35.3833 1.1493 35.2324 1.32743C35.0377 1.37449 35.0377 1.37449 34.8062 1.37418C34.7639 1.37465 34.7216 1.37512 34.6781 1.3756C34.5387 1.37673 34.3994 1.37523 34.26 1.37375C34.1631 1.37414 34.0662 1.37472 33.9693 1.37547C33.7144 1.37703 33.4595 1.37644 33.2047 1.3753C32.7963 1.37383 32.3879 1.37554 31.9795 1.37737C31.8367 1.37769 31.6939 1.37707 31.5511 1.37631C31.4639 1.37632 31.3767 1.37635 31.2895 1.3764C31.2132 1.3761 31.1369 1.3758 31.0583 1.37549C30.8711 1.37186 30.8711 1.37186 30.7535 1.51668C30.735 1.65695 30.735 1.65695 30.7391 1.82055C30.7391 1.88369 30.7391 1.94683 30.7392 2.01188C30.7398 2.08022 30.7405 2.14857 30.7411 2.21898C30.7414 2.32373 30.7414 2.32373 30.7417 2.43059C30.7424 2.65429 30.744 2.87797 30.7456 3.10166C30.7462 3.25305 30.7468 3.40443 30.7473 3.55582C30.7487 3.92751 30.7508 4.29919 30.7535 4.67088C30.9656 4.79863 31.1273 4.81257 31.3731 4.81215C31.447 4.81239 31.5209 4.81263 31.597 4.81287C31.7163 4.81248 31.7163 4.81248 31.838 4.81208C31.9629 4.8128 32.0879 4.81353 32.2129 4.81436C32.521 4.81627 32.829 4.81694 33.1371 4.81631C33.3102 4.81602 33.4832 4.81654 33.6562 4.81798C33.8193 4.81928 33.9823 4.81933 34.1453 4.81801C34.2558 4.81926 34.2558 4.81926 34.3686 4.82053C34.466 4.82059 34.466 4.82059 34.5654 4.82065C34.7277 4.86013 34.7277 4.86013 34.8432 5.01118C34.9177 5.17702 34.9425 5.28312 34.9407 5.46337C34.9414 5.53375 34.9414 5.53375 34.9421 5.60556C34.9093 5.78553 34.8554 5.86439 34.7277 5.99564C34.5597 6.02753 34.5597 6.02753 34.355 6.02808C34.2401 6.02933 34.2401 6.02933 34.1228 6.03061C34.04 6.03029 33.9572 6.02998 33.8719 6.02965C33.7862 6.03027 33.7005 6.03103 33.6148 6.0319C33.3893 6.03395 33.1638 6.0346 32.9383 6.03486C32.577 6.03541 32.2159 6.03764 31.8547 6.04067C31.7284 6.04147 31.6021 6.04138 31.4758 6.04129C31.3611 6.04194 31.3611 6.04194 31.2442 6.04262C31.1767 6.0427 31.1092 6.04278 31.0396 6.04286C30.869 6.04271 30.869 6.04271 30.7535 6.18489C30.7351 6.31233 30.7351 6.31233 30.7391 6.45981C30.7391 6.51663 30.7391 6.57346 30.7392 6.63201C30.7398 6.69345 30.7405 6.75489 30.7411 6.8182C30.7414 6.91245 30.7414 6.91245 30.7417 7.0086C30.7424 7.20979 30.744 7.41098 30.7456 7.61217C30.7462 7.74836 30.7468 7.88455 30.7473 8.02074C30.7487 8.35506 30.7508 8.68936 30.7535 9.02367C30.9339 9.1139 31.0878 9.09463 31.2895 9.09471C31.3316 9.09482 31.3737 9.09494 31.417 9.09506C31.5085 9.09532 31.5999 9.09545 31.6914 9.09547C31.8857 9.09569 32.0801 9.09703 32.2745 9.09832C32.6365 9.10072 32.9985 9.10269 33.3606 9.10256C33.6123 9.10251 33.864 9.10398 34.1157 9.10646C34.2116 9.10712 34.3075 9.10722 34.4035 9.10674C34.5378 9.10613 34.6719 9.10747 34.8062 9.10924C34.8826 9.10947 34.959 9.1097 35.0377 9.10994C35.2324 9.14984 35.2324 9.14984 35.383 9.30196C35.4809 9.459 35.5206 9.53594 35.5202 9.7176C35.5216 9.75793 35.523 9.79827 35.5244 9.83982C35.4594 10.0531 35.341 10.1464 35.1693 10.2854C34.9827 10.3166 34.8326 10.3286 34.6463 10.3262C34.5945 10.3267 34.5426 10.3273 34.4892 10.3278C34.3183 10.3292 34.1475 10.3283 33.9767 10.3272C33.8576 10.3275 33.7386 10.3278 33.6196 10.3282C33.3704 10.3286 33.1212 10.328 32.8719 10.3265C32.5526 10.3247 32.2334 10.3257 31.9142 10.3276C31.6685 10.3287 31.4228 10.3284 31.1771 10.3276C31.0594 10.3274 30.9417 10.3276 30.8239 10.3283C30.6593 10.3291 30.4948 10.3279 30.3302 10.3262C30.2817 10.3268 30.2332 10.3274 30.1832 10.3281C29.9455 10.3234 29.8249 10.2995 29.637 10.1499C29.4651 9.93693 29.4523 9.84448 29.4521 9.57446C29.4513 9.49478 29.4505 9.41509 29.4497 9.33298C29.4504 9.24515 29.4512 9.15732 29.452 9.06949C29.4516 8.97663 29.4512 8.88377 29.4506 8.7909C29.4494 8.53908 29.4502 8.28731 29.4515 8.03549C29.4525 7.77191 29.452 7.50834 29.4516 7.24476C29.4514 6.80222 29.4524 6.35969 29.4541 5.91714C29.4561 5.40546 29.4561 4.8938 29.4551 4.38211C29.454 3.88983 29.4545 3.39757 29.4556 2.90529C29.456 2.69579 29.4559 2.4863 29.4555 2.27681C29.455 2.03017 29.4557 1.78357 29.4575 1.53694C29.4579 1.44641 29.4579 1.35587 29.4574 1.26534C29.4569 1.14182 29.4581 1.0183 29.4593 0.894793C29.4596 0.791085 29.4596 0.791085 29.4598 0.685283C29.4993 0.465498 29.5723 0.392812 29.7441 0.254998C29.9424 0.155835 30.155 0.180934 30.3728 0.179746Z" fill="black"/>
<path id="Vector_9" d="M22.0716 0.151162C22.1248 0.15061 22.178 0.150057 22.2327 0.149488C22.4084 0.1481 22.5839 0.149018 22.7595 0.150084C22.8816 0.149872 23.0037 0.149566 23.1258 0.14917C23.3816 0.148705 23.6374 0.149381 23.8932 0.150854C24.2212 0.152652 24.5491 0.151617 24.8771 0.149728C25.1292 0.148588 25.3812 0.148951 25.6333 0.149768C25.7543 0.149978 25.8752 0.14972 25.9961 0.148986C26.1651 0.148185 26.334 0.149405 26.503 0.151162C26.5781 0.150205 26.5781 0.150205 26.6546 0.149228C26.9017 0.153988 27.008 0.169225 27.1886 0.344105C27.2802 0.501157 27.3183 0.580956 27.3154 0.759732C27.3164 0.820234 27.3164 0.820234 27.3173 0.881957C27.2661 1.0809 27.1764 1.1827 27.0315 1.32749C26.8253 1.36608 26.8253 1.36608 26.5835 1.36544C26.5408 1.36594 26.498 1.36645 26.454 1.36697C26.3179 1.36842 26.1819 1.36783 26.0458 1.36692C25.9093 1.36667 25.7728 1.36689 25.6363 1.36822C25.5128 1.36933 25.3893 1.36885 25.2657 1.3683C25.2031 1.37565 25.1409 1.39057 25.0759 1.39057C24.9346 1.39057 24.934 1.67301 24.9343 1.9218C24.9339 2.02834 24.9339 2.02834 24.9335 2.13702C24.9341 2.25397 24.9341 2.25397 24.9346 2.37329C24.9344 2.49927 24.9342 2.62525 24.934 2.75123C24.9339 2.8867 24.9341 3.02216 24.9343 3.15763C24.9348 3.43993 24.9342 3.72223 24.9333 4.00453C24.9309 4.80729 24.9297 5.61005 24.9305 6.41282C24.9308 6.85616 24.9301 7.29949 24.9282 7.74283C24.927 8.02349 24.9272 8.30411 24.9284 8.58477C24.929 8.80034 24.9274 9.01589 24.9262 9.23145C24.9274 9.34821 24.9274 9.34821 24.9285 9.46733C24.9227 9.99104 24.9227 9.99104 24.7367 10.2077C24.556 10.2926 24.4425 10.3138 24.244 10.3051C24.1897 10.3036 24.1355 10.302 24.0796 10.3004C23.9404 10.2854 23.9404 10.2854 23.8142 10.2223C23.8142 10.1807 23.8142 10.1391 23.8142 10.0962C23.7726 10.0962 23.7309 10.0962 23.688 10.0962C23.6672 7.26495 23.658 4.79106 23.6366 1.87405C23.6713 1.39057 23.2438 1.37479 22.9567 1.37332C22.8761 1.37202 22.7955 1.37072 22.7125 1.36938C22.585 1.36795 22.4575 1.36691 22.33 1.36655C22.2064 1.36594 22.0828 1.36374 21.9591 1.36149C21.8854 1.36098 21.8117 1.36046 21.7358 1.35992C21.5056 1.32116 21.4316 1.25767 21.2909 1.07515C21.2573 0.937402 21.2573 0.937402 21.2593 0.795217C21.2587 0.748458 21.258 0.7017 21.2573 0.653524C21.362 0.197335 21.655 0.145844 22.0716 0.151162Z" fill="black"/>
<path id="Vector_10" d="M52.5805 0.191617C52.7615 0.246905 52.8239 0.307287 52.9472 0.451838C53.047 0.693599 53.0335 0.892066 52.959 1.13788C52.8519 1.30288 52.7182 1.43102 52.5754 1.56557C52.5354 1.60503 52.4954 1.64449 52.4542 1.68515C52.3676 1.77028 52.2805 1.8549 52.193 1.93906C52.0544 2.07227 51.9172 2.2068 51.7804 2.34175C51.4897 2.62776 51.1974 2.91194 50.9048 3.19599C50.5656 3.52567 50.2272 3.85607 49.8902 4.18801C49.7549 4.32057 49.6186 4.4519 49.4821 4.58322C49.3994 4.66441 49.3166 4.74566 49.234 4.82697C49.1957 4.86316 49.1575 4.89934 49.1181 4.93663C48.9489 5.10525 48.8632 5.20536 48.8296 5.44539C48.8645 5.65223 48.9162 5.71581 49.071 5.85464C49.1161 5.89605 49.1613 5.93746 49.2078 5.98013C49.2565 6.02288 49.3052 6.06564 49.3553 6.10969C49.4047 6.15447 49.454 6.19926 49.5049 6.2454C49.6461 6.37328 49.7884 6.49985 49.931 6.62619C50.0414 6.72604 50.1518 6.82592 50.2622 6.92583C50.3102 6.96861 50.3581 7.01138 50.4076 7.05545C50.5947 7.22342 50.7794 7.39382 50.964 7.56456C51.2303 7.81088 51.4969 8.05683 51.7644 8.30185C51.8254 8.3578 51.8865 8.41375 51.9494 8.47139C52.083 8.59366 52.2165 8.71587 52.3501 8.83807C52.3847 8.86974 52.4193 8.90141 52.4549 8.93403C52.5213 8.99481 52.5878 9.05557 52.6542 9.11629C53.0209 9.45201 53.0209 9.45201 53.0418 9.67787C53.0217 9.91144 53.0041 9.99182 52.8558 10.1688C52.8143 10.2183 52.7882 10.2524 52.7067 10.2851C52.3133 10.3699 52.3133 10.3699 52.1246 10.2848C51.8732 10.1039 51.656 9.89245 51.4332 9.67787C51.3368 9.58607 51.2404 9.49432 51.1439 9.40262C51.0977 9.35866 51.0515 9.31469 51.004 9.2694C50.8049 9.0811 50.601 8.89845 50.3965 8.71609C50.2217 8.55965 50.0486 8.40136 49.8758 8.24271C49.8283 8.19914 49.8283 8.19914 49.7799 8.15469C49.6506 8.03601 49.5214 7.91727 49.3922 7.79854C49.0683 7.50102 48.7442 7.20386 48.417 6.91006C48.3417 6.84224 48.3417 6.84224 48.2649 6.77305C48.178 6.69495 48.0911 6.61691 48.0038 6.53932C47.9007 6.44772 47.798 6.35562 47.6954 6.26345C47.6634 6.23519 47.6313 6.20694 47.5982 6.17782C47.4096 6.00742 47.267 5.84594 47.1553 5.61684C47.1438 5.31327 47.2178 5.1561 47.4152 4.93766C47.4751 4.87134 47.4751 4.87134 47.5361 4.80369C47.7257 4.59995 47.9186 4.40005 48.1142 4.20213C48.1573 4.15837 48.2003 4.11461 48.2447 4.06953C48.6893 3.61798 49.1359 3.16835 49.5826 2.71889C49.7944 2.50568 50.0056 2.29186 50.2163 2.07751C50.4714 1.81786 50.7277 1.5593 50.9847 1.30148C51.0823 1.20326 51.1795 1.10466 51.2763 1.00568C51.4114 0.867654 51.5478 0.731077 51.6846 0.594763C51.7441 0.53313 51.7441 0.53313 51.8047 0.470251C52.0593 0.220341 52.2085 0.140035 52.5805 0.191617Z" fill="black"/>
</g>
</svg>
